<svg xmlns="http://www.w3.org/2000/svg" width="1800" height="1500" viewBox="0 0 1800 1500" fill="none">
  <defs>
    <style>
      .bg { fill: #0d0d0d; }
      .panel { fill: #1a1a1a; stroke: #262626; stroke-width: 2; }
      .tile-dark { fill: #0d0d0d; stroke: #00e676; stroke-width: 4; }
      .green { fill: #00e676; }
      .green-soft { fill: #75ff9e; }
      .mark { fill: #003918; }
      .stroke-mark { stroke: #003918; }
      .stroke-green { stroke: #00e676; }
      .stroke-soft { stroke: #75ff9e; }
      .ink { fill: #e5e2e1; }
      .muted { fill: #bacbb9; }
      .title { font: 700 42px "Space Grotesk", Inter, Arial, sans-serif; letter-spacing: 0; }
      .intro { font: 500 16px Inter, Arial, sans-serif; letter-spacing: 0; }
      .word { font: 700 30px "Space Grotesk", Inter, Arial, sans-serif; letter-spacing: 0; }
      .label { font: 700 16px Inter, Arial, sans-serif; letter-spacing: 0; }
      .caption { font: 500 14px Inter, Arial, sans-serif; letter-spacing: 0; }
      .number { font: 700 13px Inter, Arial, sans-serif; letter-spacing: 0.08em; }
    </style>
  </defs>

  <rect class="bg" width="1800" height="1500"/>
  <text x="64" y="82" class="title ink">SharpLsp logo options</text>
  <text x="64" y="118" class="intro muted">Fresh flat SVG directions. Mixed between code, protocol, speed, and wordmark-first concepts.</text>

  <g transform="translate(64 156)">
    <rect class="panel" width="386" height="246" rx="16"/>
    <text x="28" y="32" class="number muted">01</text>
    <g transform="translate(28 52)">
      <rect width="112" height="112" rx="14" class="green"/>
      <path d="M31 35L17 56L31 77" class="stroke-mark" stroke-width="8" stroke-linecap="square" stroke-linejoin="miter"/>
      <path d="M81 35L95 56L81 77" class="stroke-mark" stroke-width="8" stroke-linecap="square" stroke-linejoin="miter"/>
      <path d="M58 21H83L67 49H87L45 92L57 63H35L58 21Z" class="mark"/>
    </g>
    <text x="164" y="88" class="word ink">SharpLsp</text>
    <text x="164" y="122" class="label muted">Bolt brackets</text>
    <text x="28" y="207" class="caption muted">Simple code frame, fast center mark.</text>
  </g>

  <g transform="translate(480 156)">
    <rect class="panel" width="386" height="246" rx="16"/>
    <text x="28" y="32" class="number muted">02</text>
    <g transform="translate(28 52)">
      <rect width="112" height="112" rx="14" class="green"/>
      <path d="M44 25L36 88" class="stroke-mark" stroke-width="8" stroke-linecap="square"/>
      <path d="M76 25L68 88" class="stroke-mark" stroke-width="8" stroke-linecap="square"/>
      <path d="M29 45H87" class="stroke-mark" stroke-width="8" stroke-linecap="square"/>
      <path d="M25 67H83" class="stroke-mark" stroke-width="8" stroke-linecap="square"/>
      <path d="M57 18H80L64 50H85L43 96L56 63H34L57 18Z" class="green"/>
    </g>
    <text x="164" y="88" class="word ink">SharpLsp</text>
    <text x="164" y="122" class="label muted">Hash strike</text>
    <text x="28" y="207" class="caption muted">C# signal with a negative speed cut.</text>
  </g>

  <g transform="translate(896 156)">
    <rect class="panel" width="386" height="246" rx="16"/>
    <text x="28" y="32" class="number muted">03</text>
    <g transform="translate(28 52)">
      <rect width="112" height="112" rx="14" class="tile-dark"/>
      <path d="M31 38L51 56L31 74" class="stroke-green" stroke-width="9" stroke-linecap="square" stroke-linejoin="miter"/>
      <path d="M61 74H85" class="stroke-green" stroke-width="9" stroke-linecap="square"/>
      <path d="M27 91H87" class="stroke-soft" stroke-width="5" stroke-linecap="square"/>
    </g>
    <text x="164" y="88" class="word ink">SharpLsp</text>
    <text x="164" y="122" class="label muted">Prompt line</text>
    <text x="28" y="207" class="caption muted">Terminal-first, cleaner than the old nav glyph.</text>
  </g>

  <g transform="translate(1312 156)">
    <rect class="panel" width="386" height="246" rx="16"/>
    <text x="28" y="32" class="number muted">04</text>
    <g transform="translate(28 52)">
      <rect width="112" height="112" rx="14" class="green"/>
      <path d="M56 32V80" class="stroke-mark" stroke-width="8" stroke-linecap="square"/>
      <path d="M31 45L56 32L81 45" class="stroke-mark" stroke-width="8" stroke-linecap="square" stroke-linejoin="miter"/>
      <path d="M31 68L56 80L81 68" class="stroke-mark" stroke-width="8" stroke-linecap="square" stroke-linejoin="miter"/>
      <circle cx="56" cy="32" r="7" class="mark"/>
      <circle cx="31" cy="45" r="7" class="mark"/>
      <circle cx="81" cy="45" r="7" class="mark"/>
      <circle cx="31" cy="68" r="7" class="mark"/>
      <circle cx="81" cy="68" r="7" class="mark"/>
      <circle cx="56" cy="80" r="7" class="mark"/>
    </g>
    <text x="164" y="88" class="word ink">SharpLsp</text>
    <text x="164" y="122" class="label muted">Protocol mesh</text>
    <text x="28" y="207" class="caption muted">Language-server routing and editor reach.</text>
  </g>

  <g transform="translate(64 436)">
    <rect class="panel" width="386" height="246" rx="16"/>
    <text x="28" y="32" class="number muted">05</text>
    <g transform="translate(28 52)">
      <rect width="112" height="112" rx="14" class="green"/>
      <path d="M43 24H86L69 47H51L37 62H65L48 88H25L42 62H24L43 38H60L43 24Z" class="mark"/>
    </g>
    <text x="164" y="88" class="word ink">SharpLsp</text>
    <text x="164" y="122" class="label muted">Sharp ribbon</text>
    <text x="28" y="207" class="caption muted">Abstract S, angular and very compact.</text>
  </g>

  <g transform="translate(480 436)">
    <rect class="panel" width="386" height="246" rx="16"/>
    <text x="28" y="32" class="number muted">06</text>
    <g transform="translate(28 52)">
      <rect width="112" height="112" rx="14" class="tile-dark"/>
      <path d="M81 27H47L33 45H64L48 63H80L65 84H31" class="stroke-green" stroke-width="10" stroke-linecap="square" stroke-linejoin="miter"/>
      <path d="M88 27V84H102" class="stroke-soft" stroke-width="10" stroke-linecap="square"/>
    </g>
    <text x="164" y="88" class="word ink">SharpLsp</text>
    <text x="164" y="122" class="label muted">SL monogram</text>
    <text x="28" y="207" class="caption muted">Brand-first, less literal, good for app icons.</text>
  </g>

  <g transform="translate(896 436)">
    <rect class="panel" width="386" height="246" rx="16"/>
    <text x="28" y="32" class="number muted">07</text>
    <g transform="translate(28 52)">
      <rect width="112" height="112" rx="14" class="green"/>
      <path d="M23 34H58L87 56L58 78H23" class="stroke-mark" stroke-width="8" stroke-linecap="square" stroke-linejoin="miter"/>
      <path d="M23 56H87" class="stroke-mark" stroke-width="8" stroke-linecap="square"/>
      <circle cx="23" cy="34" r="6" class="mark"/>
      <circle cx="23" cy="56" r="6" class="mark"/>
      <circle cx="23" cy="78" r="6" class="mark"/>
      <circle cx="87" cy="56" r="7" class="mark"/>
    </g>
    <text x="164" y="88" class="word ink">SharpLsp</text>
    <text x="164" y="122" class="label muted">LSP lanes</text>
    <text x="28" y="207" class="caption muted">Many editor inputs, one server output.</text>
  </g>

  <g transform="translate(1312 436)">
    <rect class="panel" width="386" height="246" rx="16"/>
    <text x="28" y="32" class="number muted">08</text>
    <g transform="translate(28 52)">
      <rect width="112" height="112" rx="14" class="green"/>
      <rect x="43" y="29" width="26" height="54" rx="3" class="mark"/>
      <rect x="19" y="38" width="19" height="19" rx="3" class="mark"/>
      <rect x="74" y="38" width="19" height="19" rx="3" class="mark"/>
      <rect x="19" y="65" width="19" height="19" rx="3" class="mark"/>
      <rect x="74" y="65" width="19" height="19" rx="3" class="mark"/>
      <path d="M38 48H43M69 48H74M38 75H43M69 75H74" class="stroke-mark" stroke-width="6" stroke-linecap="square"/>
    </g>
    <text x="164" y="88" class="word ink">SharpLsp</text>
    <text x="164" y="122" class="label muted">Sidecar bridge</text>
    <text x="28" y="207" class="caption muted">Rust host plus C# and F# sidecars.</text>
  </g>

  <g transform="translate(64 716)">
    <rect class="panel" width="386" height="246" rx="16"/>
    <text x="28" y="32" class="number muted">09</text>
    <g transform="translate(28 52)">
      <rect width="112" height="112" rx="14" class="tile-dark"/>
      <path d="M27 31H85V81H27V31Z" class="stroke-green" stroke-width="7" stroke-linejoin="miter"/>
      <path d="M27 47H85" class="stroke-green" stroke-width="7" stroke-linecap="square"/>
      <path d="M42 63H63" class="stroke-soft" stroke-width="7" stroke-linecap="square"/>
      <path d="M42 76H73" class="stroke-soft" stroke-width="7" stroke-linecap="square"/>
      <circle cx="37" cy="39" r="3" class="green-soft"/>
      <circle cx="49" cy="39" r="3" class="green-soft"/>
    </g>
    <text x="164" y="88" class="word ink">SharpLsp</text>
    <text x="164" y="122" class="label muted">Editor pane</text>
    <text x="28" y="207" class="caption muted">Marketplace-friendly tooling icon.</text>
  </g>

  <g transform="translate(480 716)">
    <rect class="panel" width="386" height="246" rx="16"/>
    <text x="28" y="32" class="number muted">10</text>
    <g transform="translate(28 52)">
      <rect width="112" height="112" rx="14" class="tile-dark"/>
      <path d="M26 34H71" class="stroke-green" stroke-width="7" stroke-linecap="square"/>
      <path d="M26 51H61" class="stroke-soft" stroke-width="7" stroke-linecap="square"/>
      <path d="M26 68H79" class="stroke-green" stroke-width="7" stroke-linecap="square"/>
      <rect x="62" y="44" width="32" height="38" rx="4" fill="#00e676"/>
      <path d="M70 55H87M70 66H81" stroke="#003918" stroke-width="5" stroke-linecap="square"/>
    </g>
    <text x="164" y="88" class="word ink">SharpLsp</text>
    <text x="164" y="122" class="label muted">Completion card</text>
    <text x="28" y="207" class="caption muted">Directly references the product payoff.</text>
  </g>

  <g transform="translate(896 716)">
    <rect class="panel" width="386" height="246" rx="16"/>
    <text x="28" y="32" class="number muted">11</text>
    <g transform="translate(28 52)">
      <rect width="112" height="112" rx="14" class="green"/>
      <rect x="28" y="28" width="17" height="17" rx="3" class="mark"/>
      <rect x="50" y="28" width="17" height="17" rx="3" class="mark"/>
      <rect x="72" y="28" width="17" height="17" rx="3" class="mark"/>
      <rect x="28" y="50" width="17" height="17" rx="3" class="mark"/>
      <rect x="50" y="50" width="17" height="17" rx="3" class="mark"/>
      <rect x="72" y="50" width="17" height="17" rx="3" class="mark"/>
      <rect x="28" y="72" width="17" height="17" rx="3" class="mark"/>
      <rect x="50" y="72" width="39" height="17" rx="3" class="mark"/>
    </g>
    <text x="164" y="88" class="word ink">SharpLsp</text>
    <text x="164" y="122" class="label muted">Workspace grid</text>
    <text x="28" y="207" class="caption muted">Project/workspace feel without editor lock-in.</text>
  </g>

  <g transform="translate(1312 716)">
    <rect class="panel" width="386" height="246" rx="16"/>
    <text x="28" y="32" class="number muted">12</text>
    <g transform="translate(28 52)">
      <rect width="112" height="112" rx="14" class="green"/>
      <path d="M29 29H50M29 29V50M83 29H62M83 29V50M29 83H50M29 83V62M83 83H62M83 83V62" class="stroke-mark" stroke-width="8" stroke-linecap="square"/>
      <circle cx="56" cy="56" r="12" class="mark"/>
    </g>
    <text x="164" y="88" class="word ink">SharpLsp</text>
    <text x="164" y="122" class="label muted">Focus frame</text>
    <text x="28" y="207" class="caption muted">Precision, navigation, go-to-definition.</text>
  </g>

  <g transform="translate(64 996)">
    <rect class="panel" width="386" height="246" rx="16"/>
    <text x="28" y="32" class="number muted">13</text>
    <g transform="translate(28 52)">
      <rect width="112" height="112" rx="14" class="green"/>
      <path d="M32 30H88V45H32V30Z" class="mark"/>
      <path d="M42 45H78V61H42V45Z" class="mark"/>
      <path d="M22 61H98V78H22V61Z" class="mark"/>
      <path d="M50 78H70V92H50V78Z" class="mark"/>
    </g>
    <text x="164" y="88" class="word ink">SharpLsp</text>
    <text x="164" y="122" class="label muted">Stack trace</text>
    <text x="28" y="207" class="caption muted">Layered services, compact and distinctive.</text>
  </g>

  <g transform="translate(480 996)">
    <rect class="panel" width="386" height="246" rx="16"/>
    <text x="28" y="32" class="number muted">14</text>
    <g transform="translate(28 52)">
      <rect width="112" height="112" rx="14" class="tile-dark"/>
      <path d="M26 56C26 38 39 27 56 27C73 27 86 38 86 56C86 74 73 85 56 85C39 85 26 74 26 56Z" class="stroke-green" stroke-width="8"/>
      <path d="M39 56H73" class="stroke-soft" stroke-width="8" stroke-linecap="square"/>
      <path d="M56 39V73" class="stroke-soft" stroke-width="8" stroke-linecap="square"/>
      <circle cx="84" cy="29" r="8" class="green"/>
    </g>
    <text x="164" y="88" class="word ink">SharpLsp</text>
    <text x="164" y="122" class="label muted">Semantic orbit</text>
    <text x="28" y="207" class="caption muted">Analysis, symbols, and semantic context.</text>
  </g>

  <g transform="translate(896 996)">
    <rect class="panel" width="386" height="246" rx="16"/>
    <text x="28" y="32" class="number muted">15</text>
    <g transform="translate(28 52)">
      <rect width="112" height="112" rx="14" class="tile-dark"/>
      <path d="M28 33L50 56L28 79" class="stroke-green" stroke-width="8" stroke-linecap="square" stroke-linejoin="miter"/>
      <path d="M50 33L72 56L50 79" class="stroke-green" stroke-width="8" stroke-linecap="square" stroke-linejoin="miter"/>
      <path d="M72 33L94 56L72 79" class="stroke-soft" stroke-width="8" stroke-linecap="square" stroke-linejoin="miter"/>
    </g>
    <text x="164" y="88" class="word ink">SharpLsp</text>
    <text x="164" y="122" class="label muted">Forward packets</text>
    <text x="28" y="207" class="caption muted">Fast request flow, terse and memorable.</text>
  </g>

  <g transform="translate(1312 996)">
    <rect class="panel" width="386" height="246" rx="16"/>
    <text x="28" y="32" class="number muted">16</text>
    <g transform="translate(28 52)">
      <rect width="112" height="112" rx="14" class="green"/>
      <path d="M56 18L92 56L56 94L20 56L56 18Z" class="mark"/>
      <path d="M55 29H75L61 53H78L45 85L55 62H38L55 29Z" class="green"/>
    </g>
    <text x="164" y="88" class="word ink">SharpLsp</text>
    <text x="164" y="122" class="label muted">Diamond bolt</text>
    <text x="28" y="207" class="caption muted">Strong app-icon silhouette, less literal.</text>
  </g>

  <g transform="translate(64 1300)">
    <text x="0" y="0" class="label muted">Quick read</text>
    <text x="0" y="34" class="caption muted">Most conservative: 03, 09, 10. Most distinctive: 05, 06, 16. Most LSP-specific: 04, 07, 08, 12.</text>
    <text x="0" y="62" class="caption muted">All icon art is flat vector geometry. Text is only used for labels and the preview wordmark.</text>
  </g>
</svg>
