<svg xmlns="http://www.w3.org/2000/svg" viewBox="0 0 128 128" fill="none">
  <defs>
    <linearGradient id="bg" x1="0" y1="0" x2="128" y2="128" gradientUnits="userSpaceOnUse">
      <stop offset="0%" stop-color="#0d1117"/>
      <stop offset="100%" stop-color="#161b22"/>
    </linearGradient>
    <linearGradient id="flame" x1="64" y1="16" x2="64" y2="80" gradientUnits="userSpaceOnUse">
      <stop offset="0%" stop-color="#ff6a3d"/>
      <stop offset="50%" stop-color="#f0a500"/>
      <stop offset="100%" stop-color="#ffce54"/>
    </linearGradient>
    <linearGradient id="anvil" x1="30" y1="75" x2="98" y2="112" gradientUnits="userSpaceOnUse">
      <stop offset="0%" stop-color="#58a6ff"/>
      <stop offset="100%" stop-color="#1f6feb"/>
    </linearGradient>
  </defs>
  <!-- Background rounded square -->
  <rect width="128" height="128" rx="24" fill="url(#bg)"/>
  <!-- Flame -->
  <path d="M64 16 C64 16, 44 40, 44 54 C44 60, 48 68, 54 72 C50 66, 52 56, 58 50 C58 50, 56 64, 60 70 C60 70, 64 60, 64 48 C64 60, 68 70, 68 70 C72 64, 70 50, 70 50 C76 56, 78 66, 74 72 C80 68, 84 60, 84 54 C84 40, 64 16, 64 16Z" fill="url(#flame)"/>
  <!-- Anvil body -->
  <path d="M30 82 L34 76 L94 76 L98 82 L104 82 L104 90 L24 90 L24 82 Z" fill="url(#anvil)"/>
  <!-- Anvil base -->
  <rect x="32" y="90" width="64" height="8" rx="2" fill="url(#anvil)" opacity="0.8"/>
  <!-- Anvil foot -->
  <rect x="38" y="98" width="52" height="10" rx="3" fill="url(#anvil)" opacity="0.6"/>
  <!-- Spark dots -->
  <circle cx="42" cy="36" r="2" fill="#ffce54" opacity="0.9"/>
  <circle cx="86" cy="38" r="1.5" fill="#ff6a3d" opacity="0.8"/>
  <circle cx="50" cy="28" r="1" fill="#f0a500" opacity="0.7"/>
  <circle cx="78" cy="30" r="1.5" fill="#ffce54" opacity="0.85"/>
</svg>
